<svg width="275" height="292" viewBox="0 0 275 292" fill="none" xmlns="http://www.w3.org/2000/svg">
<path d="M147.586 34.1969C151.478 24.2421 158.284 15.6853 167.119 9.63934C175.954 3.5934 186.409 0.338112 197.125 0.296875C199.943 0.296875 202.645 1.413 204.638 3.39971C206.631 5.38643 207.75 8.08099 207.75 10.8906C207.75 13.7003 206.631 16.3948 204.638 18.3815C202.645 20.3683 199.943 21.4844 197.125 21.4844C190.684 21.5043 184.399 23.4614 179.091 27.0997C173.783 30.738 169.7 35.8883 167.375 41.8773C166.595 43.876 165.226 45.5917 163.447 46.7975C161.669 48.0034 159.565 48.6427 157.414 48.6309C156.148 48.6037 154.893 48.3803 153.695 47.9688C152.383 47.4704 151.182 46.7176 150.163 45.7538C149.144 44.79 148.327 43.6343 147.759 42.3536C147.191 41.0729 146.883 39.6926 146.853 38.2925C146.824 36.8924 147.073 35.5004 147.586 34.1969V34.1969ZM268.844 201.313C260.353 197.061 253.161 190.616 248.018 182.65C242.875 174.684 239.969 165.488 239.603 156.021C239.236 146.554 241.423 137.163 245.936 128.825C250.448 120.488 257.121 113.51 265.258 108.618C266.521 107.819 267.605 106.769 268.443 105.534C269.282 104.299 269.856 102.905 270.13 101.439C270.404 99.9731 270.372 98.4665 270.037 97.0133C269.701 95.56 269.069 94.1912 268.18 92.9922C253.743 74.6524 232.734 62.6105 209.574 59.3999C186.414 56.1892 162.907 62.0601 144 75.7773C130.526 66.0056 114.604 60.1405 97.9954 58.8308C81.3863 57.5211 64.7376 60.8178 49.891 68.3563C35.0444 75.8949 22.5786 87.3813 13.8728 101.545C5.1669 115.709 0.560273 131.997 0.562501 148.609C0.882171 183.534 11.4555 217.601 30.9766 246.602C50.1016 274.807 74.4063 291.625 96.1875 291.625H191.813C221.695 291.625 255.43 259.976 274.023 214.82C275.07 212.337 275.116 209.547 274.151 207.031C273.186 204.515 271.285 202.467 268.844 201.313V201.313Z" fill="#F4F4F5"/>
</svg>
